<?xml version="1.0" encoding="UTF-8"?><svg id="Livello_2" xmlns="http://www.w3.org/2000/svg" viewBox="0 0 54.38 62.23"><defs><style>.cls-1{fill:#ffde59;stroke-width:0px;}</style></defs><g id="Livello_1-2"><path class="cls-1" d="m48,62.23H10c-5.52,0-10-4.48-10-10v-24.17c0-2.74,1.12-5.36,3.11-7.25L22.11,2.75c3.86-3.67,9.92-3.67,13.78,0l16.93,16.09c2,1.9,2.08,5.07.18,7.07h0c-1.9,2-5.07,2.08-7.07.18l-13.49-12.82c-1.93-1.83-4.96-1.83-6.89,0l-14,13.3c-.99.94-1.56,2.25-1.56,3.62v17.03c0,2.76,2.24,5,5,5h33c2.76,0,5,2.24,5,5h0c0,2.76-2.24,5-5,5Z"/></g></svg>