<?xml version="1.0" encoding="UTF-8"?><svg id="Livello_2" xmlns="http://www.w3.org/2000/svg" viewBox="0 0 421.83 62.78"><defs><style>.cls-1,.cls-2{stroke-width:0px;}.cls-2{fill:#ffde59;}</style></defs><g id="Livello_1-2"><path class="cls-2" d="m48,62.23H10c-5.52,0-10-4.48-10-10v-24.17c0-2.74,1.12-5.36,3.11-7.25L22.11,2.75c3.86-3.67,9.92-3.67,13.78,0l16.93,16.09c2,1.9,2.08,5.07.18,7.07h0c-1.9,2-5.07,2.08-7.07.18l-13.49-12.82c-1.93-1.83-4.96-1.83-6.89,0l-14,13.3c-.99.94-1.56,2.25-1.56,3.62v17.03c0,2.76,2.24,5,5,5h33c2.76,0,5,2.24,5,5h0c0,2.76-2.24,5-5,5Z"/><path class="cls-1" d="m120.76,38.55c1.79,2.34,2.68,5.24,2.68,8.71,0,4.78-1.84,8.47-5.52,11.07-3.68,2.6-9.04,3.9-16.08,3.9h-27.43V7.06h25.85c6.51,0,11.53,1.27,15.05,3.82,3.52,2.55,5.28,6.06,5.28,10.52,0,2.73-.63,5.15-1.89,7.25s-3,3.73-5.2,4.89c3.05,1,5.46,2.67,7.25,5Zm-36.1-23.45v15.21h14.5c3.57,0,6.32-.64,8.24-1.93,1.92-1.29,2.88-3.17,2.88-5.64s-.96-4.43-2.88-5.71c-1.92-1.29-4.66-1.93-8.24-1.93h-14.5Zm28.45,31.13c0-5.31-3.97-7.96-11.9-7.96h-16.55v15.92h16.55c7.93,0,11.9-2.65,11.9-7.96Z"/><path class="cls-1" d="m140.85,60.02c-3.42-1.84-6.08-4.4-8-7.68-1.92-3.28-2.88-7-2.88-11.15s.96-7.85,2.88-11.11c1.92-3.26,4.58-5.8,8-7.64,3.42-1.84,7.25-2.76,11.51-2.76s8.17.92,11.59,2.76c3.42,1.84,6.08,4.39,8,7.64,1.92,3.26,2.88,6.96,2.88,11.11s-.96,7.87-2.88,11.15c-1.92,3.29-4.58,5.85-8,7.68-3.42,1.84-7.28,2.76-11.59,2.76s-8.09-.92-11.51-2.76Zm20.49-9.3c2.36-2.42,3.55-5.6,3.55-9.54s-1.18-7.12-3.55-9.54c-2.36-2.42-5.36-3.62-8.98-3.62s-6.61,1.21-8.95,3.62c-2.34,2.42-3.51,5.6-3.51,9.54s1.17,7.12,3.51,9.54c2.34,2.42,5.32,3.62,8.95,3.62s6.62-1.21,8.98-3.62Z"/><path class="cls-1" d="m191.69,60.02c-3.42-1.84-6.08-4.4-8-7.68-1.92-3.28-2.88-7-2.88-11.15s.96-7.85,2.88-11.11c1.92-3.26,4.58-5.8,8-7.64,3.42-1.84,7.25-2.76,11.51-2.76s8.17.92,11.59,2.76c3.42,1.84,6.08,4.39,8,7.64,1.92,3.26,2.88,6.96,2.88,11.11s-.96,7.87-2.88,11.15c-1.92,3.29-4.58,5.85-8,7.68-3.42,1.84-7.28,2.76-11.59,2.76s-8.09-.92-11.51-2.76Zm20.49-9.3c2.36-2.42,3.55-5.6,3.55-9.54s-1.18-7.12-3.55-9.54c-2.36-2.42-5.36-3.62-8.98-3.62s-6.61,1.21-8.95,3.62c-2.34,2.42-3.51,5.6-3.51,9.54s1.17,7.12,3.51,9.54c2.34,2.42,5.32,3.62,8.95,3.62s6.62-1.21,8.98-3.62Z"/><path class="cls-1" d="m235.12,3.75h9.85v58.48h-9.85V3.75Z"/><path class="cls-1" d="m305.18,38.55c1.79,2.34,2.68,5.24,2.68,8.71,0,4.78-1.84,8.47-5.52,11.07-3.68,2.6-9.04,3.9-16.08,3.9h-27.43V7.06h25.85c6.51,0,11.53,1.27,15.05,3.82,3.52,2.55,5.28,6.06,5.28,10.52,0,2.73-.63,5.15-1.89,7.25-1.26,2.1-2.99,3.73-5.2,4.89,3.05,1,5.46,2.67,7.25,5Zm-36.1-23.45v15.21h14.5c3.57,0,6.32-.64,8.24-1.93,1.92-1.29,2.88-3.17,2.88-5.64s-.96-4.43-2.88-5.71c-1.92-1.29-4.66-1.93-8.24-1.93h-14.5Zm28.45,31.13c0-5.31-3.97-7.96-11.9-7.96h-16.55v15.92h16.55c7.93,0,11.9-2.65,11.9-7.96Z"/><path class="cls-1" d="m354.52,24.32c3.21,3.1,4.81,7.7,4.81,13.79v24.12h-9.85v-22.86c0-3.68-.87-6.45-2.6-8.32-1.73-1.86-4.21-2.8-7.41-2.8-3.63,0-6.49,1.09-8.59,3.27-2.1,2.18-3.15,5.32-3.15,9.42v21.28h-9.85V20.14h9.38v5.44c1.63-1.94,3.68-3.42,6.15-4.41,2.47-1,5.25-1.5,8.35-1.5,5.31,0,9.56,1.55,12.77,4.65Z"/><path class="cls-1" d="m419.15,38.55c1.79,2.34,2.68,5.24,2.68,8.71,0,4.78-1.84,8.47-5.52,11.07s-9.04,3.9-16.08,3.9h-27.43V7.06h25.85c6.51,0,11.53,1.27,15.05,3.82,3.52,2.55,5.28,6.06,5.28,10.52,0,2.73-.63,5.15-1.89,7.25-1.26,2.1-2.99,3.73-5.2,4.89,3.05,1,5.46,2.67,7.25,5Zm-36.1-23.45v15.21h14.5c3.57,0,6.32-.64,8.24-1.93,1.92-1.29,2.88-3.17,2.88-5.64s-.96-4.43-2.88-5.71c-1.92-1.29-4.66-1.93-8.24-1.93h-14.5Zm28.45,31.13c0-5.31-3.97-7.96-11.9-7.96h-16.55v15.92h16.55c7.93,0,11.9-2.65,11.9-7.96Z"/></g></svg>